# xmcd
#
# Track frame offsets:
#	150
#	17556
#	34938
#	45840
#	62174
#	80302
#	98087
#	110735
#	127017
#	144151
#	160283
#
# Disc length: 2521 seconds
#
# Revision: 1
# Processed by: cddbd v1.5.2PL0 Copyright (c) Steve Scherf et al.
# Submitted via: EasyCDDAExtractor 2010.6.0.0
#
DISCID=8709d70b
DTITLE=Honeybrowne - Good For Nothing
DYEAR=2003
DGENRE=Country
TTITLE0=I Miss Home
TTITLE1=Fall Into You
TTITLE2=Good For Nothing
TTITLE3=A Lullaby
TTITLE4=First To Know
TTITLE5=Grey
TTITLE6=Easyville
TTITLE7=I Met You
TTITLE8=Breakin' Away
TTITLE9=Bridges
TTITLE10=Fall Asleep
EXTD=
EXTT0=
EXTT1=
EXTT2=
EXTT3=
EXTT4=
EXTT5=
EXTT6=
EXTT7=
EXTT8=
EXTT9=
EXTT10=
PLAYORDER=
